<svg xmlns="http://www.w3.org/2000/svg" width="1200" height="900" viewBox="0 0 1200 900">
  <defs>
    <style>
      .title { font: 700 28px Arial, sans-serif; fill: #111827; }
      .subtitle { font: 600 18px Arial, sans-serif; fill: #374151; }
      .label { font: 600 16px Arial, sans-serif; fill: #111827; }
      .small { font: 500 14px Arial, sans-serif; fill: #374151; }
      .tiny { font: 500 12px Arial, sans-serif; fill: #4b5563; }
      .pin { font: 700 18px Arial, sans-serif; fill: #ffffff; }
      .note { font: 600 15px Arial, sans-serif; fill: #111827; }
    </style>
    <marker id="arrow" viewBox="0 0 10 10" refX="8" refY="5" markerWidth="8" markerHeight="8" orient="auto-start-reverse">
      <path d="M 0 0 L 10 5 L 0 10 z" fill="#374151"/>
    </marker>
  </defs>

  <rect width="1200" height="900" fill="#f8fafc"/>
  <text x="40" y="48" class="title">L9637D no adaptador SOIC8 - ligacao exata para a bancada</text>
  <text x="40" y="78" class="subtitle">Orientacao igual a sua foto: topo = 8 7 6 5, base = 1 2 3 4</text>

  <!-- Adapter board -->
  <rect x="340" y="140" width="420" height="520" rx="18" fill="#2d7f5e" stroke="#1f5d45" stroke-width="4"/>
  <text x="410" y="118" class="subtitle">Vista do adaptador como na sua foto</text>

  <!-- Chip -->
  <rect x="430" y="275" width="240" height="250" rx="14" fill="#1f2937" stroke="#111827" stroke-width="3"/>
  <text x="485" y="395" class="label" fill="#e5e7eb">L9637D</text>
  <circle cx="455" cy="300" r="7" fill="#e5e7eb"/>

  <!-- Top pins -->
  <rect x="385" y="190" width="55" height="55" rx="8" fill="#7c3aed"/><text x="406" y="225" class="pin">8</text>
  <rect x="490" y="190" width="55" height="55" rx="8" fill="#ef4444"/><text x="511" y="225" class="pin">7</text>
  <rect x="595" y="190" width="55" height="55" rx="8" fill="#0ea5e9"/><text x="616" y="225" class="pin">6</text>
  <rect x="700" y="190" width="55" height="55" rx="8" fill="#6b7280"/><text x="721" y="225" class="pin">5</text>

  <!-- Bottom pins -->
  <rect x="385" y="555" width="55" height="55" rx="8" fill="#22c55e"/><text x="406" y="590" class="pin">1</text>
  <rect x="490" y="555" width="55" height="55" rx="8" fill="#9ca3af"/><text x="511" y="590" class="pin">2</text>
  <rect x="595" y="555" width="55" height="55" rx="8" fill="#f59e0b"/><text x="616" y="590" class="pin">3</text>
  <rect x="700" y="555" width="55" height="55" rx="8" fill="#10b981"/><text x="721" y="590" class="pin">4</text>

  <!-- Pin names -->
  <text x="395" y="175" class="small">LI</text>
  <text x="505" y="175" class="small">VS</text>
  <text x="610" y="175" class="small">K</text>
  <text x="712" y="175" class="small">GND</text>
  <text x="398" y="635" class="small">RX</text>
  <text x="507" y="635" class="small">LO</text>
  <text x="605" y="635" class="small">VCC</text>
  <text x="712" y="635" class="small">TX</text>

  <!-- Resistor between 8 and 7 -->
  <line x1="440" y1="217" x2="490" y2="217" stroke="#111827" stroke-width="4"/>
  <rect x="442" y="199" width="46" height="36" rx="6" fill="#facc15" stroke="#a16207" stroke-width="3"/>
  <text x="449" y="222" class="small">10k</text>
  <text x="360" y="95" class="note">Resistor obrigatorio: uma ponta em 8, outra em 7</text>

  <!-- Left labels for ESP32 -->
  <rect x="35" y="535" width="220" height="60" rx="12" fill="#dcfce7" stroke="#22c55e" stroke-width="3"/>
  <text x="55" y="572" class="label">ESP32 GPIO16 - RX</text>
  <line x1="255" y1="565" x2="385" y2="582" stroke="#22c55e" stroke-width="5" marker-end="url(#arrow)"/>

  <rect x="35" y="645" width="220" height="60" rx="12" fill="#d1fae5" stroke="#10b981" stroke-width="3"/>
  <text x="55" y="682" class="label">ESP32 GPIO17 - TX</text>
  <line x1="255" y1="675" x2="700" y2="582" stroke="#10b981" stroke-width="5" marker-end="url(#arrow)"/>

  <rect x="35" y="430" width="220" height="60" rx="12" fill="#fef3c7" stroke="#f59e0b" stroke-width="3"/>
  <text x="65" y="467" class="label">+3V3_AUX</text>
  <line x1="255" y1="460" x2="595" y2="582" stroke="#f59e0b" stroke-width="5" marker-end="url(#arrow)"/>

  <!-- Right labels OBD / GND -->
  <rect x="900" y="190" width="240" height="60" rx="12" fill="#fee2e2" stroke="#ef4444" stroke-width="3"/>
  <text x="930" y="227" class="label">OBD pino 16 (+12V)</text>
  <line x1="900" y1="220" x2="545" y2="220" stroke="#ef4444" stroke-width="5" marker-end="url(#arrow)"/>

  <rect x="900" y="300" width="220" height="60" rx="12" fill="#e0f2fe" stroke="#0ea5e9" stroke-width="3"/>
  <text x="945" y="337" class="label">OBD pino 7 (K-Line)</text>
  <line x1="900" y1="330" x2="650" y2="220" stroke="#0ea5e9" stroke-width="5" marker-end="url(#arrow)"/>

  <rect x="900" y="410" width="190" height="60" rx="12" fill="#e5e7eb" stroke="#6b7280" stroke-width="3"/>
  <text x="955" y="447" class="label">GND comum</text>
  <line x1="900" y1="440" x2="755" y2="220" stroke="#6b7280" stroke-width="5" marker-end="url(#arrow)"/>

  <rect x="900" y="535" width="180" height="60" rx="12" fill="#f3f4f6" stroke="#9ca3af" stroke-width="3"/>
  <text x="948" y="572" class="label">LO sem uso</text>
  <line x1="900" y1="565" x2="545" y2="582" stroke="#9ca3af" stroke-width="4" stroke-dasharray="10 8" marker-end="url(#arrow)"/>

  <!-- Capacitors -->
  <text x="70" y="265" class="note">Capacitores 100nF</text>
  <text x="70" y="292" class="small">C1 entre pinos 3 e 5</text>
  <text x="70" y="319" class="small">C2 entre pinos 7 e 5</text>

  <line x1="650" y1="582" x2="730" y2="582" stroke="#111827" stroke-width="4"/>
  <line x1="730" y1="560" x2="730" y2="604" stroke="#111827" stroke-width="4"/>
  <line x1="742" y1="560" x2="742" y2="604" stroke="#111827" stroke-width="4"/>
  <line x1="742" y1="582" x2="760" y2="582" stroke="#111827" stroke-width="4"/>
  <line x1="760" y1="582" x2="760" y2="220" stroke="#111827" stroke-width="4"/>
  <text x="775" y="400" class="tiny">C1 100nF</text>

  <line x1="545" y1="220" x2="610" y2="220" stroke="#111827" stroke-width="4"/>
  <line x1="610" y1="198" x2="610" y2="242" stroke="#111827" stroke-width="4"/>
  <line x1="622" y1="198" x2="622" y2="242" stroke="#111827" stroke-width="4"/>
  <line x1="622" y1="220" x2="700" y2="220" stroke="#111827" stroke-width="4"/>
  <text x="610" y="185" class="tiny">C2 100nF</text>

  <!-- ESP32 pinout helper -->
  <rect x="35" y="745" width="1110" height="110" rx="14" fill="#ffffff" stroke="#cbd5e1" stroke-width="2"/>
  <text x="55" y="780" class="label">No ESP32 DevKit 38 pinos deste projeto:</text>
  <text x="55" y="812" class="small">GPIO17 = pino TX2 no lado direito</text>
  <text x="360" y="812" class="small">GPIO16 = pino RX2 no lado direito</text>
  <text x="665" y="812" class="small">+3V3_AUX = rail dedicado</text>
  <text x="870" y="812" class="small">GND = qualquer GND confiavel</text>

  <!-- Summary box -->
  <rect x="35" y="120" width="240" height="110" rx="12" fill="#ffffff" stroke="#cbd5e1" stroke-width="2"/>
  <text x="55" y="152" class="label">Resumo rapido</text>
  <text x="55" y="182" class="small">1 -> GPIO16</text>
  <text x="55" y="206" class="small">3 -> +3V3_AUX</text>
  <text x="55" y="230" class="small">4 -> GPIO17</text>
  <text x="155" y="182" class="small">5 -> GND</text>
  <text x="155" y="206" class="small">6 -> OBD 7</text>
  <text x="155" y="230" class="small">7 -> OBD 16</text>
</svg>
